classDiagram
    class PresentationLayer {
        +UserController
        +PlaceController
        +ReviewController
        +AmenityController
    }
    class BusinessLogicLayer {
        +UserClass
        +PlaceClass
        +ReviewClass
        +AmenityClass
    }
    class PersistenceLayer {
        +UserData
        +PlaceData
        +ReviewData
        +AmenityData
    }

    PresentationLayer --> BusinessLogicLayer : Facade Pattern
    BusinessLogicLayer --> PersistenceLayer : DataBase operations
